# Blender 5.1.0
# www.blender.org
o model
v 0.150000 0.600000 -0.800000
v -0.150000 0.600000 -0.800000
v -0.150000 1.400000 -0.800000
v 0.150000 1.400000 -0.800000
v -0.150000 0.800000 -0.700000
v -0.250000 0.800000 -0.700000
v -0.250000 1.400000 -0.700000
v -0.150000 1.400000 -0.700000
v 0.150000 1.400000 -0.700000
v -0.150000 1.500000 -0.700000
v 0.150000 1.500000 -0.700000
v 0.250000 0.800000 -0.700000
v 0.150000 0.800000 -0.700000
v 0.250000 1.400000 -0.700000
v -0.150000 0.600000 -0.600000
v -0.250000 0.600000 -0.600000
v -0.250000 0.800000 -0.600000
v -0.150000 0.800000 -0.600000
v -0.150000 1.400000 -0.600000
v -0.250000 1.400000 -0.600000
v -0.250000 1.500000 -0.600000
v -0.150000 1.500000 -0.600000
v 0.150000 0.400000 -0.600000
v -0.150000 0.400000 -0.600000
v 0.150000 0.600000 -0.600000
v 0.150000 1.500000 -0.600000
v -0.150000 1.600000 -0.600000
v 0.150000 1.600000 -0.600000
v 0.250000 0.600000 -0.600000
v 0.150000 0.800000 -0.600000
v 0.250000 0.800000 -0.600000
v 0.250000 1.400000 -0.600000
v 0.150000 1.400000 -0.600000
v 0.250000 1.500000 -0.600000
v -0.250000 1.400000 -0.400000
v -0.150000 1.400000 -0.400000
v -0.150000 1.500000 -0.400000
v -0.250000 1.500000 -0.400000
v 0.150000 1.500000 -0.400000
v 0.150000 1.600000 -0.400000
v -0.150000 1.600000 -0.400000
v 0.150000 1.400000 -0.400000
v 0.250000 1.400000 -0.400000
v 0.250000 1.500000 -0.400000
v -0.150000 0.400000 -0.400000
v -0.250000 0.400000 -0.400000
v -0.250000 0.600000 -0.400000
v -0.150000 0.600000 -0.400000
v 0.150000 0.200000 -0.400000
v -0.150000 0.200000 -0.400000
v 0.150000 0.400000 -0.400000
v 0.250000 0.400000 -0.400000
v 0.150000 0.600000 -0.400000
v 0.250000 0.600000 -0.400000
v -0.250000 1.200000 -0.200000
v -0.150000 1.200000 -0.200000
v -0.150000 1.400000 -0.200000
v -0.250000 1.400000 -0.200000
v 0.150000 1.400000 -0.200000
v 0.150000 1.500000 -0.200000
v -0.150000 1.500000 -0.200000
v 0.150000 1.200000 -0.200000
v 0.250000 1.200000 -0.200000
v 0.250000 1.400000 -0.200000
v -0.150000 0.200000 -0.200000
v -0.250000 0.200000 -0.200000
v -0.250000 0.400000 -0.200000
v -0.150000 0.400000 -0.200000
v -0.250000 1.100000 -0.100000
v -0.150000 1.100000 -0.100000
v -0.150000 1.200000 -0.100000
v -0.250000 1.200000 -0.100000
v 0.150000 0.000000 -0.200000
v -0.150000 0.000000 -0.200000
v 0.150000 0.200000 -0.200000
v 0.150000 1.200000 -0.100000
v 0.150000 1.400000 -0.100000
v -0.150000 1.400000 -0.100000
v 0.250000 0.200000 -0.200000
v 0.150000 0.400000 -0.200000
v 0.250000 0.400000 -0.200000
v 0.150000 1.100000 -0.100000
v 0.250000 1.100000 -0.100000
v 0.250000 1.200000 -0.100000
v -0.250000 0.200000 0.200000
v -0.150000 0.200000 0.200000
v -0.150000 0.400000 0.200000
v -0.250000 0.400000 0.200000
v -0.150000 1.100000 0.100000
v -0.250000 1.100000 0.100000
v -0.250000 1.200000 0.100000
v -0.150000 1.200000 0.100000
v -0.150000 0.000000 0.200000
v 0.150000 0.000000 0.200000
v 0.150000 0.200000 0.200000
v 0.150000 1.200000 0.100000
v -0.150000 1.400000 0.100000
v 0.150000 1.400000 0.100000
v 0.250000 0.200000 0.200000
v 0.250000 0.400000 0.200000
v 0.150000 0.400000 0.200000
v 0.250000 1.100000 0.100000
v 0.150000 1.100000 0.100000
v 0.250000 1.200000 0.100000
v -0.150000 1.200000 0.200000
v -0.250000 1.200000 0.200000
v -0.250000 1.400000 0.200000
v -0.150000 1.400000 0.200000
v 0.150000 1.400000 0.200000
v -0.150000 1.500000 0.200000
v 0.150000 1.500000 0.200000
v 0.250000 1.200000 0.200000
v 0.150000 1.200000 0.200000
v 0.250000 1.400000 0.200000
v -0.250000 0.400000 0.400000
v -0.150000 0.400000 0.400000
v -0.150000 0.600000 0.400000
v -0.250000 0.600000 0.400000
v -0.150000 0.200000 0.400000
v 0.150000 0.200000 0.400000
v 0.150000 0.400000 0.400000
v 0.250000 0.400000 0.400000
v 0.250000 0.600000 0.400000
v 0.150000 0.600000 0.400000
v -0.150000 1.400000 0.400000
v -0.250000 1.400000 0.400000
v -0.250000 1.500000 0.400000
v -0.150000 1.500000 0.400000
v 0.150000 1.500000 0.400000
v -0.150000 1.600000 0.400000
v 0.150000 1.600000 0.400000
v 0.250000 1.400000 0.400000
v 0.150000 1.400000 0.400000
v 0.250000 1.500000 0.400000
v -0.250000 0.600000 0.600000
v -0.150000 0.600000 0.600000
v -0.150000 0.800000 0.600000
v -0.250000 0.800000 0.600000
v -0.250000 1.400000 0.600000
v -0.150000 1.400000 0.600000
v -0.150000 1.500000 0.600000
v -0.250000 1.500000 0.600000
v -0.150000 0.400000 0.600000
v 0.150000 0.400000 0.600000
v 0.150000 0.600000 0.600000
v 0.150000 1.500000 0.600000
v 0.150000 1.600000 0.600000
v -0.150000 1.600000 0.600000
v 0.250000 0.600000 0.600000
v 0.250000 0.800000 0.600000
v 0.150000 0.800000 0.600000
v 0.150000 1.400000 0.600000
v 0.250000 1.400000 0.600000
v 0.250000 1.500000 0.600000
v -0.250000 0.800000 0.700000
v -0.150000 0.800000 0.700000
v -0.150000 1.400000 0.700000
v -0.250000 1.400000 0.700000
v 0.150000 1.400000 0.700000
v 0.150000 1.500000 0.700000
v -0.150000 1.500000 0.700000
v 0.150000 0.800000 0.700000
v 0.250000 0.800000 0.700000
v 0.250000 1.400000 0.700000
v -0.150000 0.600000 0.800000
v 0.150000 0.600000 0.800000
v 0.150000 1.400000 0.800000
v -0.150000 1.400000 0.800000
v -0.250000 1.100000 0.700000
v -0.250000 1.100000 -0.700000
v -0.250000 1.200000 -0.700000
v -0.250000 1.200000 0.700000
v -0.150000 0.800000 -0.800000
v -0.150000 0.800000 0.800000
v 0.150000 0.800000 -0.800000
v 0.150000 0.800000 0.800000
v 0.250000 1.100000 -0.700000
v 0.250000 1.100000 0.700000
v 0.250000 1.200000 -0.700000
v 0.250000 1.200000 0.700000
vn -0.0000 -0.0000 -1.0000
vn -0.0000 -0.0000 1.0000
vn -1.0000 -0.0000 -0.0000
vn 1.0000 -0.0000 -0.0000
vn -0.0000 -1.0000 -0.0000
vn -0.0000 1.0000 -0.0000
vt 0.000000 0.000000
vt 1.000000 0.000000
vt 1.000000 1.000000
vt 0.000000 1.000000
s 0
f 1/1/1 2/2/1 3/3/1 4/4/1
f 5/1/1 6/2/1 7/3/1 8/4/1
f 9/1/1 8/2/1 10/3/1 11/4/1
f 12/1/1 13/2/1 9/3/1 14/4/1
f 15/1/1 16/2/1 17/3/1 18/4/1
f 19/1/1 20/2/1 21/3/1 22/4/1
f 23/1/1 24/2/1 15/3/1 25/4/1
f 26/1/1 22/2/1 27/3/1 28/4/1
f 29/1/1 25/2/1 30/3/1 31/4/1
f 32/1/1 33/2/1 26/3/1 34/4/1
f 35/1/2 36/2/2 37/3/2 38/4/2
f 37/1/2 39/2/2 40/3/2 41/4/2
f 42/1/2 43/2/2 44/3/2 39/4/2
f 45/1/1 46/2/1 47/3/1 48/4/1
f 49/1/1 50/2/1 45/3/1 51/4/1
f 52/1/1 51/2/1 53/3/1 54/4/1
f 55/1/2 56/2/2 57/3/2 58/4/2
f 57/1/2 59/2/2 60/3/2 61/4/2
f 62/1/2 63/2/2 64/3/2 59/4/2
f 65/1/1 66/2/1 67/3/1 68/4/1
f 69/1/2 70/2/2 71/3/2 72/4/2
f 73/1/1 74/2/1 65/3/1 75/4/1
f 71/1/2 76/2/2 77/3/2 78/4/2
f 79/1/1 75/2/1 80/3/1 81/4/1
f 82/1/2 83/2/2 84/3/2 76/4/2
f 85/1/2 86/2/2 87/3/2 88/4/2
f 89/1/1 90/2/1 91/3/1 92/4/1
f 93/1/2 94/2/2 95/3/2 86/4/2
f 96/1/1 92/2/1 97/3/1 98/4/1
f 95/1/2 99/2/2 100/3/2 101/4/2
f 102/1/1 103/2/1 96/3/1 104/4/1
f 105/1/1 106/2/1 107/3/1 108/4/1
f 109/1/1 108/2/1 110/3/1 111/4/1
f 112/1/1 113/2/1 109/3/1 114/4/1
f 115/1/2 116/2/2 117/3/2 118/4/2
f 119/1/2 120/2/2 121/3/2 116/4/2
f 121/1/2 122/2/2 123/3/2 124/4/2
f 125/1/1 126/2/1 127/3/1 128/4/1
f 129/1/1 128/2/1 130/3/1 131/4/1
f 132/1/1 133/2/1 129/3/1 134/4/1
f 135/1/2 136/2/2 137/3/2 138/4/2
f 139/1/2 140/2/2 141/3/2 142/4/2
f 143/1/2 144/2/2 145/3/2 136/4/2
f 141/1/2 146/2/2 147/3/2 148/4/2
f 145/1/2 149/2/2 150/3/2 151/4/2
f 152/1/2 153/2/2 154/3/2 146/4/2
f 155/1/2 156/2/2 157/3/2 158/4/2
f 157/1/2 159/2/2 160/3/2 161/4/2
f 162/1/2 163/2/2 164/3/2 159/4/2
f 165/1/2 166/2/2 167/3/2 168/4/2
f 6/1/3 155/2/3 169/3/3 170/4/3
f 170/1/3 69/2/3 72/3/3 171/4/3
f 171/1/3 55/2/3 58/3/3 7/4/3
f 16/1/3 135/2/3 138/3/3 17/4/3
f 20/1/3 35/2/3 38/3/3 21/4/3
f 46/1/3 115/2/3 118/3/3 47/4/3
f 66/1/3 85/2/3 88/3/3 67/4/3
f 90/1/3 169/2/3 172/3/3 91/4/3
f 106/1/3 172/2/3 158/3/3 107/4/3
f 126/1/3 139/2/3 142/3/3 127/4/3
f 2/1/3 15/2/3 18/3/3 173/4/3
f 173/1/3 5/2/3 8/3/3 3/4/3
f 8/1/3 19/2/3 22/3/3 10/4/3
f 24/1/3 45/2/3 48/3/3 15/4/3
f 22/1/3 37/2/3 41/3/3 27/4/3
f 50/1/3 65/2/3 68/3/3 45/4/3
f 36/1/3 57/2/3 61/3/3 37/4/3
f 74/1/3 93/2/3 86/3/3 65/4/3
f 56/1/3 71/2/3 78/3/3 57/4/3
f 70/1/3 89/2/3 92/3/3 71/4/3
f 92/1/3 105/2/3 108/3/3 97/4/3
f 86/1/3 119/2/3 116/3/3 87/4/3
f 108/1/3 125/2/3 128/3/3 110/4/3
f 116/1/3 143/2/3 136/3/3 117/4/3
f 128/1/3 141/2/3 148/3/3 130/4/3
f 136/1/3 165/2/3 174/3/3 137/4/3
f 140/1/3 157/2/3 161/3/3 141/4/3
f 156/1/3 174/2/3 168/3/3 157/4/3
f 25/1/4 1/2/4 175/3/4 30/4/4
f 13/1/4 175/2/4 4/3/4 9/4/4
f 33/1/4 9/2/4 11/3/4 26/4/4
f 51/1/4 23/2/4 25/3/4 53/4/4
f 39/1/4 26/2/4 28/3/4 40/4/4
f 75/1/4 49/2/4 51/3/4 80/4/4
f 59/1/4 42/2/4 39/3/4 60/4/4
f 94/1/4 73/2/4 75/3/4 95/4/4
f 76/1/4 62/2/4 59/3/4 77/4/4
f 103/1/4 82/2/4 76/3/4 96/4/4
f 113/1/4 96/2/4 98/3/4 109/4/4
f 120/1/4 95/2/4 101/3/4 121/4/4
f 133/1/4 109/2/4 111/3/4 129/4/4
f 144/1/4 121/2/4 124/3/4 145/4/4
f 146/1/4 129/2/4 131/3/4 147/4/4
f 166/1/4 145/2/4 151/3/4 176/4/4
f 159/1/4 152/2/4 146/3/4 160/4/4
f 176/1/4 162/2/4 159/3/4 167/4/4
f 163/1/4 12/2/4 177/3/4 178/4/4
f 83/1/4 177/2/4 179/3/4 84/4/4
f 63/1/4 179/2/4 14/3/4 64/4/4
f 149/1/4 29/2/4 31/3/4 150/4/4
f 43/1/4 32/2/4 34/3/4 44/4/4
f 122/1/4 52/2/4 54/3/4 123/4/4
f 99/1/4 79/2/4 81/3/4 100/4/4
f 178/1/4 102/2/4 104/3/4 180/4/4
f 180/1/4 112/2/4 114/3/4 164/4/4
f 153/1/4 132/2/4 134/3/4 154/4/4
f 93/1/5 74/2/5 73/3/5 94/4/5
f 65/1/5 50/2/5 49/3/5 75/4/5
f 85/1/5 66/2/5 65/3/5 86/4/5
f 95/1/5 75/2/5 79/3/5 99/4/5
f 119/1/5 86/2/5 95/3/5 120/4/5
f 45/1/5 24/2/5 23/3/5 51/4/5
f 67/1/5 46/2/5 45/3/5 68/4/5
f 80/1/5 51/2/5 52/3/5 81/4/5
f 115/1/5 88/2/5 87/3/5 116/4/5
f 121/1/5 101/2/5 100/3/5 122/4/5
f 143/1/5 116/2/5 121/3/5 144/4/5
f 15/1/5 2/2/5 1/3/5 25/4/5
f 47/1/5 16/2/5 15/3/5 48/4/5
f 53/1/5 25/2/5 29/3/5 54/4/5
f 135/1/5 118/2/5 117/3/5 136/4/5
f 145/1/5 124/2/5 123/3/5 149/4/5
f 165/1/5 136/2/5 145/3/5 166/4/5
f 17/1/5 6/2/5 5/3/5 18/4/5
f 30/1/5 13/2/5 12/3/5 31/4/5
f 155/1/5 138/2/5 137/3/5 156/4/5
f 162/1/5 151/2/5 150/3/5 163/4/5
f 69/1/6 90/2/6 89/3/6 70/4/6
f 82/1/6 103/2/6 102/3/6 83/4/6
f 55/1/6 72/2/6 71/3/6 56/4/6
f 62/1/6 76/2/6 84/3/6 63/4/6
f 71/1/6 92/2/6 96/3/6 76/4/6
f 91/1/6 106/2/6 105/3/6 92/4/6
f 96/1/6 113/2/6 112/3/6 104/4/6
f 3/1/6 8/2/6 9/3/6 4/4/6
f 7/1/6 20/2/6 19/3/6 8/4/6
f 9/1/6 33/2/6 32/3/6 14/4/6
f 35/1/6 58/2/6 57/3/6 36/4/6
f 42/1/6 59/2/6 64/3/6 43/4/6
f 57/1/6 78/2/6 77/3/6 59/4/6
f 97/1/6 108/2/6 109/3/6 98/4/6
f 107/1/6 126/2/6 125/3/6 108/4/6
f 109/1/6 133/2/6 132/3/6 114/4/6
f 139/1/6 158/2/6 157/3/6 140/4/6
f 152/1/6 159/2/6 164/3/6 153/4/6
f 157/1/6 168/2/6 167/3/6 159/4/6
f 10/1/6 22/2/6 26/3/6 11/4/6
f 21/1/6 38/2/6 37/3/6 22/4/6
f 26/1/6 39/2/6 44/3/6 34/4/6
f 37/1/6 61/2/6 60/3/6 39/4/6
f 110/1/6 128/2/6 129/3/6 111/4/6
f 127/1/6 142/2/6 141/3/6 128/4/6
f 129/1/6 146/2/6 154/3/6 134/4/6
f 141/1/6 161/2/6 160/3/6 146/4/6
f 27/1/6 41/2/6 40/3/6 28/4/6
f 130/1/6 148/2/6 147/3/6 131/4/6
